<svg xmlns="http://www.w3.org/2000/svg" viewBox="0 0 1200 630" role="img" aria-label="CRM Linkemed">
  <defs>
    <linearGradient id="crm-bg" x1="0" y1="0" x2="1" y2="1">
      <stop offset="0%" stop-color="#111827"/>
      <stop offset="100%" stop-color="#047857"/>
    </linearGradient>
    <pattern id="crm-grid" width="40" height="40" patternUnits="userSpaceOnUse">
      <path d="M 40 0 L 0 0 0 40" fill="none" stroke="#ffffff" stroke-opacity="0.06" stroke-width="1"/>
    </pattern>
  </defs>
  <rect width="1200" height="630" fill="url(#crm-bg)"/>
  <rect width="1200" height="630" fill="url(#crm-grid)"/>
  <g transform="translate(600 255)" fill="none" stroke="#ffffff" stroke-width="4" stroke-linecap="round" stroke-linejoin="round">
    <rect x="-180" y="-70" width="90" height="140" rx="6" stroke-opacity="0.9"/>
    <rect x="-45" y="-70" width="90" height="140" rx="6" stroke-opacity="0.9"/>
    <rect x="90" y="-70" width="90" height="140" rx="6" stroke-opacity="0.9"/>
    <rect x="-170" y="-50" width="70" height="24" rx="4" fill="#10b981" stroke="none"/>
    <rect x="-170" y="-18" width="70" height="24" rx="4" fill="#ffffff" fill-opacity="0.2" stroke="none"/>
    <rect x="-35" y="-50" width="70" height="24" rx="4" fill="#10b981" stroke="none"/>
    <rect x="-35" y="-18" width="70" height="24" rx="4" fill="#10b981" stroke="none"/>
    <rect x="-35" y="14" width="70" height="24" rx="4" fill="#ffffff" fill-opacity="0.2" stroke="none"/>
    <rect x="100" y="-50" width="70" height="24" rx="4" fill="#10b981" stroke="none"/>
  </g>
  <g font-family="system-ui, -apple-system, Segoe UI, Roboto, sans-serif" fill="#ffffff" text-anchor="middle">
    <text x="600" y="470" font-size="58" font-weight="700" letter-spacing="-1">CRM Linkemed</text>
    <text x="600" y="516" font-size="22" font-weight="400" fill="#a7f3d0" opacity="0.9">Kanban 19 statuts · Algolia · v2.18.0 en production</text>
    <text x="600" y="556" font-size="14" font-weight="500" fill="#fca5a5" letter-spacing="2">PROJET INTERNE · CONFIDENTIEL</text>
  </g>
</svg>
