<svg xmlns="http://www.w3.org/2000/svg" viewBox="0 0 1200 630" role="img" aria-label="CRM SOS MEDEVAC">
  <defs>
    <linearGradient id="medevac-bg" x1="0" y1="0" x2="1" y2="1">
      <stop offset="0%" stop-color="#18181b"/>
      <stop offset="100%" stop-color="#059669"/>
    </linearGradient>
    <pattern id="medevac-grid" width="40" height="40" patternUnits="userSpaceOnUse">
      <path d="M 40 0 L 0 0 0 40" fill="none" stroke="#ffffff" stroke-opacity="0.06" stroke-width="1"/>
    </pattern>
  </defs>
  <rect width="1200" height="630" fill="url(#medevac-bg)"/>
  <rect width="1200" height="630" fill="url(#medevac-grid)"/>
  <g transform="translate(600 250)" stroke="#ffffff" stroke-width="5" fill="none" stroke-linecap="round" stroke-linejoin="round">
    <rect x="-100" y="-50" width="200" height="120" rx="10"/>
    <path d="M-10 -20 L-10 10 L-40 10 L-40 30 L-10 30 L-10 60 L10 60 L10 30 L40 30 L40 10 L10 10 L10 -20 Z" fill="#ef4444" stroke="#ef4444" fill-opacity="0.85"/>
    <path d="M-140 70 L-100 70 L-80 40 L80 40 L100 70 L140 70" stroke-opacity="0.6"/>
  </g>
  <g font-family="system-ui, -apple-system, Segoe UI, Roboto, sans-serif" fill="#ffffff" text-anchor="middle">
    <text x="600" y="470" font-size="58" font-weight="700" letter-spacing="-1">CRM SOS MEDEVAC</text>
    <text x="600" y="516" font-size="22" font-weight="400" fill="#d1fae5" opacity="0.9">Évacuations sanitaires · tRPC · PostgreSQL HDS · Scalingo</text>
    <text x="600" y="556" font-size="14" font-weight="500" fill="#fca5a5" letter-spacing="2">PROJET INTERNE · CONFIDENTIEL</text>
  </g>
</svg>
